<?xml version="1.0" encoding="UTF-8"?>
<svg xmlns="http://www.w3.org/2000/svg" xmlns:xlink="http://www.w3.org/1999/xlink" width="640" height="200" viewBox="0 0 640 200">
<path fill-rule="nonzero" fill="rgb(0%, 0%, 0%)" fill-opacity="1" d="M 23.078125 31.503906 L 21.015625 26.199219 L 14.222656 26.199219 L 12.183594 31.503906 L 10 31.503906 L 16.695312 14.296875 L 18.640625 14.296875 L 25.3125 31.503906 Z M 18.449219 19.097656 C 18.398438 18.96875 18.320312 18.734375 18.207031 18.398438 C 18.097656 18.0625 17.988281 17.714844 17.882812 17.355469 C 17.78125 16.996094 17.695312 16.71875 17.632812 16.527344 C 17.550781 16.847656 17.46875 17.171875 17.378906 17.5 C 17.292969 17.828125 17.203125 18.128906 17.117188 18.398438 C 17.027344 18.671875 16.953125 18.902344 16.886719 19.097656 L 14.945312 24.28125 L 20.367188 24.28125 Z M 32.558594 14.367188 C 34.703125 14.367188 36.324219 14.683594 37.421875 15.316406 C 38.515625 15.949219 39.0625 17.046875 39.0625 18.617188 C 39.0625 19.289062 38.941406 19.882812 38.691406 20.402344 C 38.445312 20.925781 38.074219 21.355469 37.589844 21.699219 C 37.101562 22.042969 36.503906 22.28125 35.800781 22.40625 L 35.800781 22.527344 C 36.519531 22.640625 37.171875 22.847656 37.757812 23.152344 C 38.339844 23.457031 38.800781 23.886719 39.136719 24.449219 C 39.472656 25.007812 39.640625 25.734375 39.640625 26.632812 C 39.640625 27.671875 39.398438 28.554688 38.921875 29.285156 C 38.441406 30.011719 37.757812 30.5625 36.867188 30.941406 C 35.980469 31.316406 34.921875 31.503906 33.6875 31.503906 L 27.664062 31.503906 L 27.664062 14.367188 Z M 32.992188 21.664062 C 34.464844 21.664062 35.472656 21.429688 36.015625 20.957031 C 36.558594 20.484375 36.832031 19.785156 36.832031 18.855469 C 36.832031 17.910156 36.5 17.234375 35.835938 16.828125 C 35.171875 16.421875 34.113281 16.214844 32.65625 16.214844 L 29.824219 16.214844 L 29.824219 21.664062 Z M 29.824219 23.464844 L 29.824219 29.679688 L 33.28125 29.679688 C 34.800781 29.679688 35.855469 29.382812 36.449219 28.792969 C 37.039062 28.199219 37.335938 27.425781 37.335938 26.464844 C 37.335938 25.855469 37.203125 25.328125 36.941406 24.878906 C 36.675781 24.433594 36.234375 24.085938 35.621094 23.835938 C 35.003906 23.589844 34.167969 23.464844 33.113281 23.464844 Z M 50.609375 16.023438 C 49.695312 16.023438 48.871094 16.179688 48.136719 16.492188 C 47.398438 16.804688 46.777344 17.261719 46.265625 17.859375 C 45.753906 18.460938 45.359375 19.1875 45.089844 20.042969 C 44.816406 20.898438 44.679688 21.863281 44.679688 22.9375 C 44.679688 24.34375 44.898438 25.566406 45.339844 26.609375 C 45.78125 27.648438 46.4375 28.449219 47.308594 29.007812 C 48.179688 29.566406 49.273438 29.847656 50.585938 29.847656 C 51.335938 29.847656 52.046875 29.785156 52.71875 29.65625 C 53.390625 29.527344 54.046875 29.367188 54.6875 29.175781 L 54.6875 31.046875 C 54.046875 31.289062 53.386719 31.464844 52.707031 31.574219 C 52.027344 31.6875 51.214844 31.742188 50.273438 31.742188 C 48.527344 31.742188 47.070312 31.382812 45.902344 30.664062 C 44.734375 29.945312 43.859375 28.921875 43.277344 27.59375 C 42.691406 26.265625 42.398438 24.703125 42.398438 22.910156 C 42.398438 21.617188 42.578125 20.433594 42.941406 19.359375 C 43.300781 18.289062 43.828125 17.359375 44.523438 16.574219 C 45.21875 15.792969 46.078125 15.1875 47.105469 14.765625 C 48.128906 14.339844 49.304688 14.128906 50.632812 14.128906 C 51.511719 14.128906 52.359375 14.214844 53.175781 14.390625 C 53.992188 14.566406 54.71875 14.816406 55.359375 15.136719 L 54.496094 16.960938 C 53.96875 16.71875 53.378906 16.503906 52.730469 16.3125 C 52.085938 16.121094 51.375 16.023438 50.609375 16.023438 Z M 67.433594 24.929688 L 62.992188 18.640625 L 65.390625 18.640625 L 68.703125 23.488281 L 71.992188 18.640625 L 74.367188 18.640625 L 69.929688 24.929688 L 74.609375 31.503906 L 72.207031 31.503906 L 68.703125 26.367188 L 65.152344 31.503906 L 62.777344 31.503906 Z M 75.0625 18.640625 L 77.320312 18.640625 L 80.105469 25.960938 C 80.265625 26.390625 80.410156 26.808594 80.546875 27.207031 C 80.683594 27.609375 80.808594 27.996094 80.921875 28.371094 C 81.03125 28.746094 81.121094 29.113281 81.183594 29.464844 L 81.28125 29.464844 C 81.375 29.0625 81.527344 28.539062 81.734375 27.890625 C 81.945312 27.242188 82.160156 26.59375 82.382812 25.9375 L 85 18.640625 L 87.28125 18.640625 L 81.734375 33.28125 C 81.433594 34.078125 81.074219 34.78125 80.667969 35.378906 C 80.261719 35.980469 79.765625 36.445312 79.179688 36.773438 C 78.597656 37.101562 77.886719 37.265625 77.054688 37.265625 C 76.671875 37.265625 76.335938 37.242188 76.046875 37.203125 C 75.761719 37.164062 75.511719 37.121094 75.304688 37.070312 L 75.304688 35.390625 C 75.480469 35.425781 75.691406 35.457031 75.941406 35.488281 C 76.1875 35.519531 76.449219 35.535156 76.71875 35.535156 C 77.214844 35.535156 77.644531 35.445312 78.003906 35.261719 C 78.363281 35.074219 78.671875 34.8125 78.929688 34.46875 C 79.183594 34.125 79.398438 33.71875 79.574219 33.257812 L 80.246094 31.550781 Z M 97.625 31.503906 L 88.214844 31.503906 L 88.214844 30.113281 L 95.128906 20.273438 L 88.625 20.273438 L 88.625 18.640625 L 97.457031 18.640625 L 97.457031 20.222656 L 90.640625 29.871094 L 97.625 29.871094 Z M 111.0625 31.503906 L 111.0625 20.800781 C 111.0625 20.351562 111.070312 19.867188 111.089844 19.347656 C 111.105469 18.828125 111.121094 18.324219 111.136719 17.835938 C 111.152344 17.347656 111.160156 16.929688 111.160156 16.574219 C 110.902344 16.847656 110.683594 17.066406 110.5 17.234375 C 110.316406 17.402344 110.0625 17.625 109.742188 17.894531 L 108.015625 19.3125 L 106.886719 17.871094 L 111.375 14.367188 L 113.128906 14.367188 L 113.128906 31.503906 Z M 119.152344 29.679688 L 123.257812 25.214844 C 124.039062 24.367188 124.707031 23.609375 125.261719 22.9375 C 125.8125 22.265625 126.238281 21.601562 126.542969 20.945312 C 126.847656 20.289062 127 19.566406 127 18.785156 C 127 17.871094 126.742188 17.167969 126.230469 16.671875 C 125.71875 16.175781 125.054688 15.929688 124.238281 15.929688 C 123.503906 15.929688 122.835938 16.078125 122.234375 16.382812 C 121.636719 16.6875 121.0625 17.070312 120.519531 17.535156 L 119.320312 16.144531 C 119.734375 15.761719 120.195312 15.414062 120.699219 15.113281 C 121.203125 14.808594 121.757812 14.566406 122.355469 14.390625 C 122.957031 14.214844 123.59375 14.128906 124.265625 14.128906 C 125.273438 14.128906 126.140625 14.3125 126.867188 14.679688 C 127.597656 15.046875 128.160156 15.570312 128.558594 16.253906 C 128.960938 16.933594 129.160156 17.753906 129.160156 18.710938 C 129.160156 19.59375 128.984375 20.425781 128.632812 21.207031 C 128.28125 21.992188 127.796875 22.769531 127.179688 23.535156 C 126.5625 24.304688 125.855469 25.113281 125.054688 25.960938 L 121.769531 29.464844 L 121.769531 29.558594 L 129.832031 29.558594 L 129.832031 31.503906 L 119.152344 31.503906 Z M 136.742188 31.742188 C 135.894531 31.742188 135.09375 31.675781 134.332031 31.539062 C 133.570312 31.402344 132.863281 31.160156 132.207031 30.808594 L 132.207031 28.816406 C 132.894531 29.167969 133.632812 29.445312 134.414062 29.644531 C 135.199219 29.84375 135.960938 29.945312 136.695312 29.945312 C 138.136719 29.945312 139.1875 29.644531 139.851562 29.042969 C 140.515625 28.445312 140.847656 27.617188 140.847656 26.558594 C 140.847656 25.855469 140.667969 25.28125 140.308594 24.832031 C 139.949219 24.382812 139.4375 24.054688 138.773438 23.847656 C 138.109375 23.640625 137.3125 23.535156 136.382812 23.535156 L 134.824219 23.535156 L 134.824219 21.761719 L 136.382812 21.761719 C 137.664062 21.761719 138.640625 21.460938 139.3125 20.859375 C 139.984375 20.261719 140.320312 19.480469 140.320312 18.519531 C 140.320312 17.976562 140.195312 17.511719 139.949219 17.128906 C 139.699219 16.742188 139.359375 16.449219 138.929688 16.238281 C 138.496094 16.03125 137.984375 15.929688 137.390625 15.929688 C 136.558594 15.929688 135.824219 16.058594 135.183594 16.324219 C 134.542969 16.589844 133.9375 16.929688 133.359375 17.34375 L 132.28125 15.878906 C 132.871094 15.398438 133.601562 14.988281 134.464844 14.644531 C 135.328125 14.300781 136.304688 14.128906 137.390625 14.128906 C 138.511719 14.128906 139.453125 14.3125 140.210938 14.679688 C 140.972656 15.046875 141.542969 15.546875 141.929688 16.179688 C 142.3125 16.8125 142.503906 17.542969 142.503906 18.375 C 142.503906 19.144531 142.347656 19.8125 142.035156 20.378906 C 141.722656 20.949219 141.292969 21.40625 140.738281 21.761719 C 140.1875 22.113281 139.542969 22.351562 138.808594 22.480469 L 138.808594 22.550781 C 140.183594 22.710938 141.230469 23.148438 141.953125 23.859375 C 142.671875 24.570312 143.03125 25.496094 143.03125 26.632812 C 143.03125 27.625 142.808594 28.507812 142.359375 29.285156 C 141.910156 30.058594 141.222656 30.664062 140.296875 31.097656 C 139.367188 31.527344 138.183594 31.742188 136.742188 31.742188 Z M 136.742188 31.742188 "/>
<path fill-rule="nonzero" fill="rgb(0%, 0%, 0%)" fill-opacity="1" d="M 25.433594 71.503906 L 23.273438 71.503906 L 23.273438 63.511719 L 14.488281 63.511719 L 14.488281 71.503906 L 12.328125 71.503906 L 12.328125 54.367188 L 14.488281 54.367188 L 14.488281 61.617188 L 23.273438 61.617188 L 23.273438 54.367188 L 25.433594 54.367188 Z M 34.792969 58.398438 C 35.894531 58.398438 36.84375 58.640625 37.636719 59.121094 C 38.429688 59.601562 39.035156 60.277344 39.460938 61.148438 C 39.882812 62.019531 40.097656 63.039062 40.097656 64.207031 L 40.097656 65.480469 L 31.289062 65.480469 C 31.320312 66.9375 31.691406 68.042969 32.402344 68.804688 C 33.117188 69.5625 34.113281 69.945312 35.390625 69.945312 C 36.207031 69.945312 36.933594 69.867188 37.5625 69.714844 C 38.195312 69.5625 38.847656 69.34375 39.519531 69.054688 L 39.519531 70.902344 C 38.863281 71.191406 38.214844 71.402344 37.574219 71.539062 C 36.9375 71.675781 36.175781 71.742188 35.296875 71.742188 C 34.078125 71.742188 33.003906 71.496094 32.066406 71 C 31.132812 70.503906 30.402344 69.765625 29.882812 68.78125 C 29.363281 67.796875 29.105469 66.59375 29.105469 65.167969 C 29.105469 63.761719 29.339844 62.550781 29.8125 61.542969 C 30.285156 60.535156 30.949219 59.761719 31.804688 59.214844 C 32.660156 58.671875 33.65625 58.398438 34.792969 58.398438 Z M 34.769531 60.128906 C 33.761719 60.128906 32.964844 60.453125 32.378906 61.101562 C 31.796875 61.746094 31.449219 62.648438 31.335938 63.800781 L 37.886719 63.800781 C 37.886719 63.0625 37.777344 62.425781 37.550781 61.878906 C 37.328125 61.335938 36.988281 60.90625 36.53125 60.597656 C 36.074219 60.285156 35.488281 60.128906 34.769531 60.128906 Z M 45.472656 71.503906 L 43.359375 71.503906 L 43.359375 53.265625 L 45.472656 53.265625 Z M 51.664062 71.503906 L 49.550781 71.503906 L 49.550781 53.265625 L 51.664062 53.265625 Z M 66.929688 65.046875 C 66.929688 66.121094 66.789062 67.066406 66.507812 67.890625 C 66.226562 68.714844 65.828125 69.414062 65.308594 69.992188 C 64.789062 70.566406 64.15625 71.003906 63.410156 71.300781 C 62.667969 71.597656 61.839844 71.742188 60.929688 71.742188 C 60.078125 71.742188 59.296875 71.597656 58.574219 71.300781 C 57.855469 71.003906 57.230469 70.566406 56.703125 69.992188 C 56.175781 69.414062 55.765625 68.714844 55.46875 67.890625 C 55.171875 67.066406 55.023438 66.121094 55.023438 65.046875 C 55.023438 63.625 55.265625 62.421875 55.742188 61.4375 C 56.222656 60.453125 56.910156 59.699219 57.808594 59.179688 C 58.703125 58.660156 59.769531 58.398438 61 58.398438 C 62.167969 58.398438 63.195312 58.660156 64.085938 59.179688 C 64.972656 59.699219 65.667969 60.453125 66.171875 61.4375 C 66.675781 62.421875 66.929688 63.625 66.929688 65.046875 Z M 57.207031 65.046875 C 57.207031 66.054688 57.339844 66.933594 57.605469 67.675781 C 57.867188 68.421875 58.28125 68.992188 58.839844 69.390625 C 59.398438 69.792969 60.113281 69.992188 60.976562 69.992188 C 61.839844 69.992188 62.550781 69.792969 63.113281 69.390625 C 63.671875 68.992188 64.085938 68.421875 64.347656 67.675781 C 64.613281 66.933594 64.742188 66.054688 64.742188 65.046875 C 64.742188 64.023438 64.609375 63.152344 64.335938 62.433594 C 64.0625 61.710938 63.652344 61.15625 63.101562 60.765625 C 62.546875 60.371094 61.832031 60.175781 60.953125 60.175781 C 59.640625 60.175781 58.6875 60.609375 58.097656 61.472656 C 57.503906 62.335938 57.207031 63.527344 57.207031 65.046875 Z M 69.328125 74.601562 C 69.488281 73.960938 69.644531 73.292969 69.796875 72.597656 C 69.949219 71.898438 70.085938 71.214844 70.203125 70.542969 C 70.324219 69.871094 70.425781 69.265625 70.503906 68.71875 L 72.832031 68.71875 L 73 68.984375 C 72.855469 69.542969 72.671875 70.148438 72.449219 70.796875 C 72.222656 71.445312 71.984375 72.09375 71.726562 72.738281 C 71.472656 73.386719 71.207031 74.007812 70.9375 74.601562 Z M 87.761719 54.367188 C 90 54.367188 91.632812 54.808594 92.65625 55.6875 C 93.679688 56.566406 94.191406 57.808594 94.191406 59.40625 C 94.191406 60.113281 94.074219 60.789062 93.84375 61.4375 C 93.613281 62.085938 93.230469 62.664062 92.703125 63.175781 C 92.175781 63.6875 91.472656 64.09375 90.59375 64.386719 C 89.710938 64.683594 88.632812 64.832031 87.351562 64.832031 L 85.382812 64.832031 L 85.382812 71.503906 L 83.222656 71.503906 L 83.222656 54.367188 Z M 87.566406 56.214844 L 85.382812 56.214844 L 85.382812 62.984375 L 87.113281 62.984375 C 88.199219 62.984375 89.105469 62.867188 89.824219 62.636719 C 90.542969 62.402344 91.078125 62.03125 91.433594 61.519531 C 91.785156 61.007812 91.960938 60.335938 91.960938 59.503906 C 91.960938 58.398438 91.609375 57.574219 90.902344 57.03125 C 90.199219 56.488281 89.089844 56.214844 87.566406 56.214844 Z M 99.566406 71.503906 L 97.457031 71.503906 L 97.457031 53.265625 L 99.566406 53.265625 Z M 108.519531 58.425781 C 110.089844 58.425781 111.246094 58.769531 112 59.457031 C 112.753906 60.144531 113.128906 61.238281 113.128906 62.742188 L 113.128906 71.503906 L 111.59375 71.503906 L 111.183594 69.679688 L 111.089844 69.679688 C 110.71875 70.144531 110.339844 70.53125 109.949219 70.84375 C 109.554688 71.15625 109.109375 71.382812 108.605469 71.527344 C 108.101562 71.671875 107.488281 71.742188 106.769531 71.742188 C 106 71.742188 105.308594 71.609375 104.691406 71.335938 C 104.074219 71.0625 103.59375 70.644531 103.238281 70.074219 C 102.886719 69.507812 102.710938 68.792969 102.710938 67.929688 C 102.710938 66.648438 103.214844 65.660156 104.222656 64.964844 C 105.230469 64.269531 106.785156 63.886719 108.878906 63.824219 L 111.0625 63.753906 L 111.0625 62.984375 C 111.0625 61.910156 110.832031 61.167969 110.367188 60.753906 C 109.902344 60.335938 109.246094 60.128906 108.398438 60.128906 C 107.726562 60.128906 107.089844 60.226562 106.480469 60.429688 C 105.871094 60.628906 105.304688 60.855469 104.777344 61.113281 L 104.128906 59.527344 C 104.6875 59.222656 105.351562 58.964844 106.121094 58.746094 C 106.886719 58.53125 107.6875 58.425781 108.519531 58.425781 Z M 109.144531 65.289062 C 107.542969 65.351562 106.4375 65.609375 105.820312 66.054688 C 105.203125 66.503906 104.894531 67.136719 104.894531 67.953125 C 104.894531 68.671875 105.117188 69.199219 105.554688 69.535156 C 105.996094 69.871094 106.558594 70.039062 107.246094 70.039062 C 108.335938 70.039062 109.238281 69.738281 109.960938 69.140625 C 110.679688 68.539062 111.039062 67.617188 111.039062 66.367188 L 111.039062 65.214844 Z M 115.097656 58.640625 L 117.351562 58.640625 L 120.136719 65.960938 C 120.296875 66.390625 120.445312 66.808594 120.578125 67.207031 C 120.714844 67.609375 120.839844 67.996094 120.953125 68.371094 C 121.0625 68.746094 121.152344 69.113281 121.214844 69.464844 L 121.3125 69.464844 C 121.40625 69.0625 121.558594 68.539062 121.769531 67.890625 C 121.976562 67.242188 122.191406 66.59375 122.414062 65.9375 L 125.03125 58.640625 L 127.3125 58.640625 L 121.769531 73.28125 C 121.464844 74.078125 121.109375 74.78125 120.699219 75.378906 C 120.292969 75.980469 119.796875 76.445312 119.210938 76.773438 C 118.628906 77.101562 117.921875 77.265625 117.089844 77.265625 C 116.703125 77.265625 116.367188 77.242188 116.078125 77.203125 C 115.792969 77.164062 115.542969 77.121094 115.335938 77.070312 L 115.335938 75.390625 C 115.511719 75.425781 115.722656 75.457031 115.972656 75.488281 C 116.21875 75.519531 116.480469 75.535156 116.753906 75.535156 C 117.246094 75.535156 117.675781 75.445312 118.035156 75.261719 C 118.394531 75.074219 118.703125 74.8125 118.960938 74.46875 C 119.214844 74.125 119.433594 73.71875 119.609375 73.257812 L 120.28125 71.550781 Z M 133.910156 58.398438 C 134.761719 58.398438 135.523438 58.558594 136.203125 58.878906 C 136.882812 59.199219 137.464844 59.6875 137.945312 60.34375 L 138.0625 60.34375 L 138.351562 58.640625 L 140.03125 58.640625 L 140.03125 71.71875 C 140.03125 72.9375 139.824219 73.957031 139.40625 74.78125 C 138.992188 75.605469 138.359375 76.222656 137.511719 76.640625 C 136.664062 77.054688 135.585938 77.265625 134.273438 77.265625 C 133.34375 77.265625 132.492188 77.195312 131.714844 77.058594 C 130.941406 76.925781 130.246094 76.71875 129.640625 76.449219 L 129.640625 74.503906 C 130.246094 74.824219 130.960938 75.070312 131.777344 75.246094 C 132.59375 75.425781 133.464844 75.511719 134.390625 75.511719 C 135.496094 75.511719 136.363281 75.1875 136.996094 74.539062 C 137.628906 73.890625 137.945312 73.007812 137.945312 71.886719 L 137.945312 71.382812 C 137.945312 71.191406 137.953125 70.914062 137.96875 70.554688 C 137.984375 70.195312 138 69.945312 138.015625 69.800781 L 137.921875 69.800781 C 137.472656 70.457031 136.914062 70.945312 136.253906 71.265625 C 135.589844 71.585938 134.816406 71.742188 133.9375 71.742188 C 132.273438 71.742188 130.972656 71.160156 130.035156 69.992188 C 129.101562 68.824219 128.632812 67.191406 128.632812 65.097656 C 128.632812 63.046875 129.101562 61.421875 130.035156 60.210938 C 130.972656 59.003906 132.265625 58.398438 133.910156 58.398438 Z M 134.199219 60.175781 C 133.480469 60.175781 132.867188 60.367188 132.363281 60.753906 C 131.859375 61.136719 131.476562 61.695312 131.210938 62.433594 C 130.949219 63.167969 130.816406 64.0625 130.816406 65.121094 C 130.816406 66.703125 131.109375 67.914062 131.691406 68.757812 C 132.277344 69.597656 133.128906 70.015625 134.246094 70.015625 C 134.902344 70.015625 135.464844 69.933594 135.929688 69.765625 C 136.390625 69.597656 136.777344 69.332031 137.078125 68.972656 C 137.382812 68.613281 137.609375 68.152344 137.753906 67.59375 C 137.894531 67.03125 137.96875 66.367188 137.96875 65.601562 L 137.96875 65.097656 C 137.96875 63.929688 137.835938 62.984375 137.570312 62.265625 C 137.308594 61.542969 136.894531 61.015625 136.335938 60.679688 C 135.777344 60.34375 135.0625 60.175781 134.199219 60.175781 Z M 150.113281 58.398438 C 150.351562 58.398438 150.613281 58.410156 150.890625 58.4375 C 151.171875 58.460938 151.414062 58.496094 151.625 58.542969 L 151.359375 60.488281 C 151.152344 60.441406 150.925781 60.398438 150.675781 60.367188 C 150.429688 60.335938 150.191406 60.320312 149.96875 60.320312 C 149.472656 60.320312 149 60.425781 148.550781 60.632812 C 148.105469 60.839844 147.703125 61.132812 147.351562 61.507812 C 147 61.882812 146.722656 62.335938 146.523438 62.863281 C 146.324219 63.390625 146.222656 63.984375 146.222656 64.640625 L 146.222656 71.503906 L 144.113281 71.503906 L 144.113281 58.640625 L 145.839844 58.640625 L 146.078125 60.992188 L 146.175781 60.992188 C 146.449219 60.511719 146.777344 60.074219 147.160156 59.683594 C 147.542969 59.292969 147.984375 58.980469 148.480469 58.746094 C 148.976562 58.515625 149.519531 58.398438 150.113281 58.398438 Z M 164.726562 65.046875 C 164.726562 66.121094 164.589844 67.066406 164.308594 67.890625 C 164.027344 68.714844 163.628906 69.414062 163.109375 69.992188 C 162.589844 70.566406 161.957031 71.003906 161.210938 71.300781 C 160.46875 71.597656 159.640625 71.742188 158.726562 71.742188 C 157.878906 71.742188 157.097656 71.597656 156.375 71.300781 C 155.65625 71.003906 155.03125 70.566406 154.503906 69.992188 C 153.976562 69.414062 153.5625 68.714844 153.269531 67.890625 C 152.972656 67.066406 152.824219 66.121094 152.824219 65.046875 C 152.824219 63.625 153.0625 62.421875 153.542969 61.4375 C 154.023438 60.453125 154.710938 59.699219 155.609375 59.179688 C 156.503906 58.660156 157.566406 58.398438 158.800781 58.398438 C 159.96875 58.398438 160.996094 58.660156 161.882812 59.179688 C 162.773438 59.699219 163.46875 60.453125 163.972656 61.4375 C 164.476562 62.421875 164.726562 63.625 164.726562 65.046875 Z M 155.007812 65.046875 C 155.007812 66.054688 155.140625 66.933594 155.402344 67.675781 C 155.667969 68.421875 156.078125 68.992188 156.640625 69.390625 C 157.199219 69.792969 157.910156 69.992188 158.777344 69.992188 C 159.640625 69.992188 160.351562 69.792969 160.910156 69.390625 C 161.472656 68.992188 161.882812 68.421875 162.148438 67.675781 C 162.410156 66.933594 162.542969 66.054688 162.542969 65.046875 C 162.542969 64.023438 162.40625 63.152344 162.136719 62.433594 C 161.863281 61.710938 161.453125 61.15625 160.898438 60.765625 C 160.347656 60.371094 159.632812 60.175781 158.753906 60.175781 C 157.441406 60.175781 156.488281 60.609375 155.894531 61.472656 C 155.304688 62.335938 155.007812 63.527344 155.007812 65.046875 Z M 178.816406 58.640625 L 178.816406 71.503906 L 177.089844 71.503906 L 176.777344 69.800781 L 176.679688 69.800781 C 176.40625 70.246094 176.054688 70.617188 175.625 70.902344 C 175.191406 71.191406 174.71875 71.402344 174.207031 71.539062 C 173.695312 71.675781 173.160156 71.742188 172.601562 71.742188 C 171.574219 71.742188 170.714844 71.578125 170.019531 71.253906 C 169.324219 70.925781 168.800781 70.414062 168.449219 69.726562 C 168.097656 69.039062 167.921875 68.152344 167.921875 67.0625 L 167.921875 58.640625 L 170.054688 58.640625 L 170.054688 66.921875 C 170.054688 67.945312 170.289062 68.710938 170.753906 69.222656 C 171.214844 69.734375 171.9375 69.992188 172.910156 69.992188 C 173.871094 69.992188 174.628906 69.8125 175.179688 69.453125 C 175.730469 69.09375 176.125 68.5625 176.355469 67.867188 C 176.589844 67.171875 176.703125 66.328125 176.703125 65.335938 L 176.703125 58.640625 Z M 189.089844 58.398438 C 190.625 58.398438 191.785156 58.773438 192.566406 59.515625 C 193.351562 60.261719 193.742188 61.464844 193.742188 63.128906 L 193.742188 71.503906 L 191.65625 71.503906 L 191.65625 63.273438 C 191.65625 62.230469 191.425781 61.457031 190.960938 60.945312 C 190.496094 60.433594 189.769531 60.175781 188.777344 60.175781 C 187.351562 60.175781 186.367188 60.574219 185.824219 61.375 C 185.28125 62.175781 185.007812 63.328125 185.007812 64.832031 L 185.007812 71.503906 L 182.894531 71.503906 L 182.894531 58.640625 L 184.601562 58.640625 L 184.910156 60.390625 L 185.03125 60.390625 C 185.320312 59.945312 185.675781 59.570312 186.101562 59.277344 C 186.523438 58.980469 186.992188 58.761719 187.503906 58.617188 C 188.015625 58.472656 188.542969 58.398438 189.089844 58.398438 Z M 202.289062 71.742188 C 200.6875 71.742188 199.40625 71.1875 198.449219 70.074219 C 197.488281 68.964844 197.007812 67.304688 197.007812 65.097656 C 197.007812 62.886719 197.492188 61.21875 198.460938 60.09375 C 199.429688 58.964844 200.710938 58.398438 202.3125 58.398438 C 202.984375 58.398438 203.566406 58.484375 204.0625 58.652344 C 204.558594 58.820312 204.992188 59.046875 205.359375 59.335938 C 205.726562 59.625 206.039062 59.945312 206.296875 60.296875 L 206.441406 60.296875 C 206.425781 60.089844 206.394531 59.78125 206.355469 59.371094 C 206.316406 58.964844 206.296875 58.640625 206.296875 58.398438 L 206.296875 53.265625 L 208.40625 53.265625 L 208.40625 71.503906 L 206.703125 71.503906 L 206.390625 69.777344 L 206.296875 69.777344 C 206.039062 70.144531 205.726562 70.476562 205.359375 70.773438 C 204.992188 71.066406 204.554688 71.304688 204.050781 71.480469 C 203.546875 71.65625 202.960938 71.742188 202.289062 71.742188 Z M 202.625 69.992188 C 203.984375 69.992188 204.941406 69.621094 205.492188 68.875 C 206.042969 68.132812 206.320312 67.007812 206.320312 65.503906 L 206.320312 65.121094 C 206.320312 63.519531 206.054688 62.292969 205.527344 61.4375 C 205 60.578125 204.023438 60.152344 202.601562 60.152344 C 201.464844 60.152344 200.613281 60.605469 200.042969 61.507812 C 199.476562 62.410156 199.191406 63.625 199.191406 65.144531 C 199.191406 66.679688 199.476562 67.871094 200.042969 68.71875 C 200.613281 69.566406 201.472656 69.992188 202.625 69.992188 Z M 214.792969 66.679688 L 214.191406 54.367188 L 216.761719 54.367188 L 216.160156 66.679688 Z M 213.976562 70.207031 C 213.976562 69.617188 214.121094 69.199219 214.40625 68.960938 C 214.695312 68.71875 215.046875 68.601562 215.464844 68.601562 C 215.863281 68.601562 216.210938 68.71875 216.507812 68.960938 C 216.804688 69.199219 216.953125 69.617188 216.953125 70.207031 C 216.953125 70.785156 216.804688 71.199219 216.507812 71.457031 C 216.210938 71.710938 215.863281 71.839844 215.464844 71.839844 C 215.046875 71.839844 214.695312 71.710938 214.40625 71.457031 C 214.121094 71.199219 213.976562 70.785156 213.976562 70.207031 Z M 213.976562 70.207031 "/>
<path fill-rule="nonzero" fill="rgb(0%, 0%, 0%)" fill-opacity="1" d="M 23.078125 111.503906 L 21.015625 106.199219 L 14.222656 106.199219 L 12.183594 111.503906 L 10 111.503906 L 16.695312 94.296875 L 18.640625 94.296875 L 25.3125 111.503906 Z M 18.449219 99.097656 C 18.398438 98.96875 18.320312 98.734375 18.207031 98.398438 C 18.097656 98.0625 17.988281 97.714844 17.882812 97.355469 C 17.78125 96.996094 17.695312 96.71875 17.632812 96.527344 C 17.550781 96.847656 17.46875 97.171875 17.378906 97.5 C 17.292969 97.828125 17.203125 98.128906 17.117188 98.398438 C 17.027344 98.671875 16.953125 98.902344 16.886719 99.097656 L 14.945312 104.28125 L 20.367188 104.28125 Z M 38.777344 94.367188 L 32.65625 111.503906 L 30.496094 111.503906 L 24.375 94.367188 L 26.632812 94.367188 L 30.496094 105.359375 C 30.671875 105.824219 30.824219 106.273438 30.953125 106.703125 C 31.078125 107.136719 31.195312 107.546875 31.300781 107.941406 C 31.402344 108.332031 31.496094 108.71875 31.574219 109.105469 C 31.65625 108.71875 31.746094 108.328125 31.851562 107.929688 C 31.957031 107.527344 32.074219 107.113281 32.210938 106.679688 C 32.347656 106.246094 32.496094 105.792969 32.65625 105.3125 L 36.496094 94.367188 Z M 50.894531 111.503906 L 48.832031 106.199219 L 42.039062 106.199219 L 40 111.503906 L 37.816406 111.503906 L 44.511719 94.296875 L 46.457031 94.296875 L 53.128906 111.503906 Z M 46.265625 99.097656 C 46.214844 98.96875 46.136719 98.734375 46.023438 98.398438 C 45.910156 98.0625 45.804688 97.714844 45.699219 97.355469 C 45.597656 96.996094 45.511719 96.71875 45.449219 96.527344 C 45.367188 96.847656 45.285156 97.171875 45.195312 97.5 C 45.109375 97.828125 45.019531 98.128906 44.933594 98.398438 C 44.84375 98.671875 44.769531 98.902344 44.703125 99.097656 L 42.761719 104.28125 L 48.183594 104.28125 Z M 59.222656 111.503906 L 57.0625 111.503906 L 57.0625 96.265625 L 51.710938 96.265625 L 51.710938 94.367188 L 64.550781 94.367188 L 64.550781 96.265625 L 59.222656 96.265625 Z M 76.214844 111.503906 L 74.152344 106.199219 L 67.359375 106.199219 L 65.320312 111.503906 L 63.136719 111.503906 L 69.832031 94.296875 L 71.777344 94.296875 L 78.449219 111.503906 Z M 71.585938 99.097656 C 71.535156 98.96875 71.457031 98.734375 71.34375 98.398438 C 71.230469 98.0625 71.125 97.714844 71.019531 97.355469 C 70.914062 96.996094 70.832031 96.71875 70.769531 96.527344 C 70.6875 96.847656 70.605469 97.171875 70.515625 97.5 C 70.429688 97.828125 70.339844 98.128906 70.253906 98.398438 C 70.164062 98.671875 70.089844 98.902344 70.023438 99.097656 L 68.078125 104.28125 L 73.503906 104.28125 Z M 85.527344 94.367188 C 86.953125 94.367188 88.125 94.546875 89.042969 94.90625 C 89.964844 95.269531 90.648438 95.808594 91.097656 96.527344 C 91.542969 97.246094 91.769531 98.152344 91.769531 99.238281 C 91.769531 100.152344 91.601562 100.910156 91.265625 101.519531 C 90.929688 102.128906 90.5 102.613281 89.980469 102.972656 C 89.460938 103.332031 88.910156 103.617188 88.335938 103.824219 L 93.039062 111.503906 L 90.519531 111.503906 L 86.367188 104.425781 L 82.960938 104.425781 L 82.960938 111.503906 L 80.800781 111.503906 L 80.800781 94.367188 Z M 85.40625 96.238281 L 82.960938 96.238281 L 82.960938 102.601562 L 85.527344 102.601562 C 86.921875 102.601562 87.9375 102.324219 88.574219 101.773438 C 89.214844 101.21875 89.535156 100.40625 89.535156 99.335938 C 89.535156 98.585938 89.386719 97.984375 89.09375 97.535156 C 88.796875 97.089844 88.34375 96.761719 87.734375 96.550781 C 87.128906 96.34375 86.351562 96.238281 85.40625 96.238281 Z M 85.40625 96.238281 "/>
<path fill-rule="nonzero" fill="rgb(0%, 0%, 0%)" fill-opacity="1" d="M 23.222656 145.046875 C 23.222656 146.121094 23.085938 147.066406 22.804688 147.890625 C 22.523438 148.714844 22.125 149.414062 21.605469 149.992188 C 21.085938 150.566406 20.453125 151.003906 19.707031 151.300781 C 18.964844 151.597656 18.136719 151.742188 17.222656 151.742188 C 16.375 151.742188 15.59375 151.597656 14.871094 151.300781 C 14.152344 151.003906 13.527344 150.566406 13 149.992188 C 12.472656 149.414062 12.058594 148.714844 11.765625 147.890625 C 11.46875 147.066406 11.320312 146.121094 11.320312 145.046875 C 11.320312 143.625 11.558594 142.421875 12.039062 141.4375 C 12.519531 140.453125 13.207031 139.699219 14.105469 139.179688 C 15 138.660156 16.0625 138.398438 17.296875 138.398438 C 18.464844 138.398438 19.492188 138.660156 20.378906 139.179688 C 21.269531 139.699219 21.964844 140.453125 22.46875 141.4375 C 22.972656 142.421875 23.222656 143.625 23.222656 145.046875 Z M 13.503906 145.046875 C 13.503906 146.054688 13.636719 146.933594 13.898438 147.675781 C 14.164062 148.421875 14.574219 148.992188 15.136719 149.390625 C 15.695312 149.792969 16.40625 149.992188 17.273438 149.992188 C 18.136719 149.992188 18.847656 149.792969 19.40625 149.390625 C 19.96875 148.992188 20.378906 148.421875 20.644531 147.675781 C 20.90625 146.933594 21.039062 146.054688 21.039062 145.046875 C 21.039062 144.023438 20.902344 143.152344 20.632812 142.433594 C 20.359375 141.710938 19.949219 141.15625 19.394531 140.765625 C 18.84375 140.371094 18.128906 140.175781 17.246094 140.175781 C 15.9375 140.175781 14.984375 140.609375 14.390625 141.472656 C 13.800781 142.335938 13.503906 143.527344 13.503906 145.046875 Z M 32.488281 140.273438 L 29.246094 140.273438 L 29.246094 151.503906 L 27.136719 151.503906 L 27.136719 140.273438 L 24.878906 140.273438 L 24.878906 139.289062 L 27.136719 138.566406 L 27.136719 137.824219 C 27.136719 136.160156 27.503906 134.964844 28.238281 134.234375 C 28.976562 133.507812 30 133.144531 31.3125 133.144531 C 31.824219 133.144531 32.292969 133.1875 32.714844 133.277344 C 33.140625 133.363281 33.503906 133.464844 33.808594 133.574219 L 33.257812 135.230469 C 33 135.152344 32.703125 135.070312 32.367188 134.992188 C 32.03125 134.910156 31.6875 134.871094 31.335938 134.871094 C 30.632812 134.871094 30.109375 135.109375 29.765625 135.578125 C 29.421875 136.050781 29.246094 136.792969 29.246094 137.800781 L 29.246094 138.640625 L 32.488281 138.640625 Z M 40.742188 140.273438 L 37.503906 140.273438 L 37.503906 151.503906 L 35.390625 151.503906 L 35.390625 140.273438 L 33.136719 140.273438 L 33.136719 139.289062 L 35.390625 138.566406 L 35.390625 137.824219 C 35.390625 136.160156 35.761719 134.964844 36.496094 134.234375 C 37.230469 133.507812 38.257812 133.144531 39.566406 133.144531 C 40.078125 133.144531 40.546875 133.1875 40.972656 133.277344 C 41.394531 133.363281 41.761719 133.464844 42.0625 133.574219 L 41.511719 135.230469 C 41.257812 135.152344 40.960938 135.070312 40.625 134.992188 C 40.289062 134.910156 39.945312 134.871094 39.59375 134.871094 C 38.886719 134.871094 38.363281 135.109375 38.019531 135.578125 C 37.675781 136.050781 37.503906 136.792969 37.503906 137.800781 L 37.503906 138.640625 L 40.742188 138.640625 Z M 45.183594 138.640625 L 45.183594 151.503906 L 43.070312 151.503906 L 43.070312 138.640625 Z M 44.152344 133.816406 C 44.472656 133.816406 44.757812 133.925781 45.003906 134.140625 C 45.253906 134.355469 45.375 134.695312 45.375 135.160156 C 45.375 135.609375 45.253906 135.945312 45.003906 136.167969 C 44.757812 136.390625 44.472656 136.503906 44.152344 136.503906 C 43.800781 136.503906 43.503906 136.390625 43.265625 136.167969 C 43.023438 135.945312 42.902344 135.609375 42.902344 135.160156 C 42.902344 134.695312 43.023438 134.355469 43.265625 134.140625 C 43.503906 133.925781 43.800781 133.816406 44.152344 133.816406 Z M 54.425781 151.742188 C 53.289062 151.742188 52.277344 151.511719 51.386719 151.046875 C 50.5 150.585938 49.804688 149.863281 49.300781 148.886719 C 48.796875 147.910156 48.542969 146.664062 48.542969 145.144531 C 48.542969 143.558594 48.808594 142.273438 49.335938 141.28125 C 49.863281 140.289062 50.578125 139.558594 51.484375 139.097656 C 52.386719 138.632812 53.414062 138.398438 54.566406 138.398438 C 55.222656 138.398438 55.855469 138.46875 56.464844 138.605469 C 57.070312 138.738281 57.566406 138.902344 57.953125 139.097656 L 57.304688 140.847656 C 56.921875 140.703125 56.472656 140.566406 55.960938 140.441406 C 55.449219 140.3125 54.96875 140.246094 54.519531 140.246094 C 53.65625 140.246094 52.945312 140.433594 52.382812 140.800781 C 51.824219 141.167969 51.40625 141.710938 51.136719 142.433594 C 50.863281 143.152344 50.726562 144.046875 50.726562 145.121094 C 50.726562 146.144531 50.863281 147.015625 51.136719 147.734375 C 51.40625 148.457031 51.816406 149 52.359375 149.367188 C 52.902344 149.734375 53.585938 149.921875 54.398438 149.921875 C 55.105469 149.921875 55.722656 149.847656 56.261719 149.703125 C 56.796875 149.558594 57.289062 149.382812 57.734375 149.175781 L 57.734375 151.046875 C 57.304688 151.273438 56.828125 151.445312 56.308594 151.5625 C 55.789062 151.683594 55.160156 151.742188 54.425781 151.742188 Z M 65.753906 138.398438 C 66.855469 138.398438 67.804688 138.640625 68.597656 139.121094 C 69.386719 139.601562 69.996094 140.277344 70.421875 141.148438 C 70.84375 142.019531 71.054688 143.039062 71.054688 144.207031 L 71.054688 145.480469 L 62.246094 145.480469 C 62.28125 146.9375 62.652344 148.042969 63.363281 148.804688 C 64.074219 149.5625 65.070312 149.945312 66.351562 149.945312 C 67.167969 149.945312 67.890625 149.867188 68.523438 149.714844 C 69.15625 149.5625 69.808594 149.34375 70.480469 149.054688 L 70.480469 150.902344 C 69.824219 151.191406 69.175781 151.402344 68.535156 151.539062 C 67.894531 151.675781 67.136719 151.742188 66.257812 151.742188 C 65.039062 151.742188 63.964844 151.496094 63.027344 151 C 62.09375 150.503906 61.363281 149.765625 60.84375 148.78125 C 60.324219 147.796875 60.0625 146.59375 60.0625 145.167969 C 60.0625 143.761719 60.300781 142.550781 60.773438 141.542969 C 61.242188 140.535156 61.90625 139.761719 62.765625 139.214844 C 63.621094 138.671875 64.617188 138.398438 65.753906 138.398438 Z M 65.726562 140.128906 C 64.71875 140.128906 63.925781 140.453125 63.339844 141.101562 C 62.757812 141.746094 62.40625 142.648438 62.296875 143.800781 L 68.847656 143.800781 C 68.847656 143.0625 68.734375 142.425781 68.511719 141.878906 C 68.289062 141.335938 67.949219 140.90625 67.492188 140.597656 C 67.035156 140.285156 66.449219 140.128906 65.726562 140.128906 Z M 65.726562 140.128906 "/>
</svg>
